<?xml version="1.0" ?><svg viewBox="0 0 32 32" xmlns="http://www.w3.org/2000/svg"><title/><g data-name="board, background, frame, school, chalkboard, billboard, chalk, blackboard, backdrop, classroom" id="board_background_frame_school_chalkboard_billboard_chalk_blackboard_backdrop_classroom"><path d="M27,4H17V3a1,1,0,0,0-2,0V4H5A3,3,0,0,0,2,7V23a3,3,0,0,0,3,3h6.7l-1.55,2.47a1,1,0,0,0,.32,1.38,1,1,0,0,0,1.38-.32L14.05,26H18l2.2,3.53a1,1,0,0,0,1.38.32,1,1,0,0,0,.32-1.38L20.3,26H27a3,3,0,0,0,3-3V7A3,3,0,0,0,27,4ZM4,7A1,1,0,0,1,5,6H27a1,1,0,0,1,1,1V20H26V19a3,3,0,0,0-3-3H21a3,3,0,0,0-3,3v1H4ZM24,20H20V19a1,1,0,0,1,1-1h2a1,1,0,0,1,1,1Zm4,3a1,1,0,0,1-1,1H5a1,1,0,0,1-1-1V22H28Z"/></g></svg>